<svg xmlns="http://www.w3.org/2000/svg" xmlns:xlink="http://www.w3.org/1999/xlink" width="1080" zoomAndPan="magnify" viewBox="0 0 810 809.999993" height="1080" preserveAspectRatio="xMidYMid meet" version="1.0"><defs><clipPath id="d3d4de4194"><path d="M 0 158.035156 L 426 158.035156 L 426 722 L 0 722 Z M 0 158.035156 " clip-rule="nonzero"/></clipPath><clipPath id="a4d477ee4b"><path d="M 513 0 L 810 0 L 810 380.328125 L 513 380.328125 Z M 513 0 " clip-rule="nonzero"/></clipPath></defs><rect x="-81" width="972" fill="#ffffff" y="-80.999999" height="971.999992" fill-opacity="1"/><rect x="-81" width="972" fill="#ffffff" y="-80.999999" height="971.999992" fill-opacity="1"/><g clip-path="url(#d3d4de4194)"><path fill="#fe9881" d="M -20.8125 182.734375 C -15.066406 183.648438 -9.4375 185.136719 -4.019531 187.261719 C -3.683594 187.394531 -1.449219 188.308594 -3.535156 187.441406 C -5.613281 186.578125 -3.402344 187.515625 -3.074219 187.664062 C -1.78125 188.25 -0.503906 188.871094 0.757812 189.523438 C 3.273438 190.832031 5.726562 192.261719 8.101562 193.808594 C 9.292969 194.585938 10.464844 195.390625 11.621094 196.21875 C 12.003906 196.496094 12.382812 196.785156 12.769531 197.0625 C 14.898438 198.585938 10.457031 195.1875 12.5 196.839844 C 14.734375 198.648438 16.921875 200.5 19.015625 202.46875 C 23.285156 206.480469 27.15625 210.84375 30.820312 215.410156 C 32.117188 217.03125 30.320312 214.816406 30.222656 214.636719 C 30.558594 215.261719 31.136719 215.851562 31.558594 216.425781 C 32.445312 217.628906 33.308594 218.84375 34.15625 220.078125 C 35.863281 222.5625 37.492188 225.097656 39.046875 227.675781 C 42.066406 232.6875 44.8125 237.863281 47.308594 243.15625 C 47.964844 244.546875 48.601562 245.945312 49.222656 247.351562 C 49.519531 248.015625 49.753906 248.855469 50.148438 249.46875 C 50.027344 249.28125 48.976562 246.636719 49.78125 248.605469 C 50.996094 251.578125 52.167969 254.558594 53.257812 257.578125 C 55.292969 263.210938 57.089844 268.929688 58.65625 274.710938 C 65.871094 301.296875 68.597656 328.914062 73.703125 355.933594 C 78.984375 383.90625 86.839844 412.113281 102.460938 436.238281 C 126.875 473.945312 165.875 497.191406 205.890625 515.371094 C 245.898438 533.542969 288.207031 547.882812 324.957031 572.464844 C 327.050781 573.867188 329.128906 575.300781 331.175781 576.773438 C 332.292969 577.574219 333.398438 578.386719 334.5 579.207031 C 334.867188 579.480469 335.230469 579.757812 335.59375 580.03125 C 338.292969 582.078125 334.070312 578.808594 335.777344 580.167969 C 339.886719 583.441406 343.902344 586.8125 347.746094 590.394531 C 351.769531 594.144531 355.613281 598.085938 359.242188 602.222656 C 361.121094 604.359375 363.191406 606.511719 364.769531 608.882812 C 362.910156 606.085938 365.523438 609.910156 366.0625 610.648438 C 367.292969 612.335938 368.488281 614.054688 369.652344 615.789062 C 373.472656 621.496094 376.925781 627.441406 380.027344 633.566406 C 381.515625 636.5 382.917969 639.476562 384.246094 642.484375 C 384.5 643.054688 385.785156 645.878906 384.40625 642.796875 C 384.773438 643.613281 385.097656 644.457031 385.433594 645.289062 C 386.21875 647.238281 386.972656 649.199219 387.695312 651.167969 C 392.480469 664.1875 395.953125 677.667969 398.367188 691.316406 C 398.945312 694.585938 399.449219 697.863281 399.921875 701.148438 C 400.375 704.265625 399.582031 698.285156 399.953125 701.410156 C 400.0625 702.304688 400.175781 703.199219 400.28125 704.097656 C 400.492188 705.890625 400.679688 707.683594 400.859375 709.476562 C 401.199219 712.878906 402.027344 715.828125 404.523438 718.324219 C 406.695312 720.496094 410.253906 722.128906 413.371094 721.988281 C 419.59375 721.710938 426.582031 716.453125 425.882812 709.476562 C 422.867188 679.351562 415.910156 649.789062 402.441406 622.539062 C 391.171875 599.742188 374.90625 579.644531 355.082031 563.746094 C 319.710938 535.382812 277.289062 519.210938 236.058594 501.484375 C 215.9375 492.832031 195.902344 483.746094 177.140625 472.386719 C 172.492188 469.566406 167.925781 466.613281 163.476562 463.488281 C 161.449219 462.066406 159.453125 460.609375 157.480469 459.117188 C 156.804688 458.605469 154.925781 456.988281 157.878906 459.433594 C 157.363281 459.007812 156.820312 458.605469 156.292969 458.1875 C 155.242188 457.351562 154.203125 456.503906 153.167969 455.644531 C 145.074219 448.910156 137.570312 441.457031 130.953125 433.261719 C 130.523438 432.734375 130.105469 432.199219 129.683594 431.671875 C 128.097656 429.679688 131.496094 434.097656 129.976562 432.046875 C 129.164062 430.945312 128.347656 429.851562 127.550781 428.738281 C 125.867188 426.371094 124.257812 423.953125 122.722656 421.488281 C 119.085938 415.644531 115.890625 409.535156 113.082031 403.253906 C 112.722656 402.445312 112.308594 401.628906 112.011719 400.796875 C 113.152344 403.96875 112.144531 401.085938 111.90625 400.484375 C 111.238281 398.828125 110.59375 397.160156 109.972656 395.484375 C 108.730469 392.128906 107.582031 388.734375 106.515625 385.316406 C 104.457031 378.71875 102.703125 372.03125 101.15625 365.300781 C 94.671875 337.078125 91.773438 308.183594 85.65625 279.890625 C 75.425781 232.5625 49.800781 181.128906 1.96875 162.875 C -3.246094 160.882812 -8.652344 159.480469 -14.160156 158.601562 C -17.59375 158.054688 -20.691406 158.042969 -23.804688 159.867188 C -26.402344 161.382812 -28.875 164.359375 -29.554688 167.34375 C -30.921875 173.347656 -27.726562 181.632812 -20.8125 182.734375 Z M -20.8125 182.734375 " fill-opacity="1" fill-rule="nonzero"/></g><path fill="#fe9881" d="M -29.101562 351.390625 C -28.957031 351.503906 -28.804688 351.613281 -28.660156 351.726562 C -29.503906 351.074219 -30.347656 350.421875 -31.191406 349.769531 C -27.277344 352.820312 -23.808594 356.339844 -20.753906 360.25 C -21.410156 359.40625 -22.058594 358.558594 -22.710938 357.71875 C -18.785156 362.835938 -15.652344 368.464844 -13.128906 374.394531 C -13.546875 373.398438 -13.96875 372.402344 -14.390625 371.40625 C -10.242188 381.320312 -7.808594 391.839844 -6.363281 402.46875 C -6.511719 401.359375 -6.660156 400.25 -6.808594 399.140625 C -3.65625 422.921875 -4.878906 447.148438 0.441406 470.671875 C 5.117188 491.328125 15.523438 509.953125 29.097656 526.054688 C 41.933594 541.277344 57.914062 553.921875 74.800781 564.371094 C 93.847656 576.15625 114.628906 584.90625 135.519531 592.824219 C 157.132812 601.011719 179.128906 608.171875 200.589844 616.773438 C 203.226562 617.832031 205.859375 618.910156 208.476562 620.015625 C 207.480469 619.59375 206.484375 619.171875 205.488281 618.753906 C 222.644531 626.007812 239.507812 634.332031 254.308594 645.761719 C 253.464844 645.105469 252.621094 644.457031 251.777344 643.804688 C 259.128906 649.535156 265.894531 655.988281 271.648438 663.339844 C 270.996094 662.496094 270.34375 661.648438 269.691406 660.808594 C 274.574219 667.128906 278.671875 673.996094 281.785156 681.359375 C 281.367188 680.359375 280.945312 679.363281 280.523438 678.367188 C 283.085938 684.546875 284.90625 690.984375 285.8125 697.617188 C 285.664062 696.507812 285.515625 695.398438 285.367188 694.289062 C 286.003906 699.308594 286.105469 704.351562 285.609375 709.386719 C 285.3125 712.394531 287.21875 716.179688 289.273438 718.234375 C 291.441406 720.402344 295.003906 722.039062 298.121094 721.898438 C 301.355469 721.753906 304.710938 720.691406 306.96875 718.234375 C 309.335938 715.65625 310.289062 712.863281 310.632812 709.386719 C 312.277344 692.664062 307.613281 675.648438 299.691406 661.003906 C 291.566406 645.988281 279.644531 633.871094 266.191406 623.582031 C 253.960938 614.230469 240.265625 606.976562 226.253906 600.6875 C 210.097656 593.433594 193.515625 587.230469 176.855469 581.261719 C 159.070312 574.894531 141.214844 568.699219 123.792969 561.375 C 124.789062 561.796875 125.785156 562.21875 126.78125 562.636719 C 106.488281 554.070312 86.941406 543.835938 69.460938 530.335938 C 70.304688 530.988281 71.148438 531.640625 71.992188 532.292969 C 61.214844 523.917969 51.320312 514.414062 42.953125 503.605469 C 43.605469 504.449219 44.257812 505.296875 44.910156 506.140625 C 38.625 497.949219 33.292969 489.078125 29.246094 479.574219 C 29.667969 480.570312 30.089844 481.566406 30.507812 482.5625 C 26.328125 472.601562 23.808594 462.148438 22.335938 451.460938 C 22.484375 452.570312 22.632812 453.675781 22.78125 454.785156 C 20.34375 436.597656 20.671875 418.171875 18.324219 399.976562 C 16.160156 383.226562 12.242188 366.542969 3.507812 351.878906 C -1.710938 343.121094 -8.414062 335.933594 -16.476562 329.78125 C -18.875 327.949219 -23.359375 327.761719 -26.117188 328.519531 C -29.019531 329.320312 -32.164062 331.5625 -33.59375 334.269531 C -35.128906 337.175781 -35.898438 340.691406 -34.855469 343.910156 C -34.433594 344.90625 -34.015625 345.902344 -33.59375 346.898438 C -32.476562 348.78125 -30.980469 350.277344 -29.101562 351.390625 Z M -29.101562 351.390625 " fill-opacity="1" fill-rule="nonzero"/><path fill="#fe9881" d="M -36.039062 589.261719 C -31.675781 601.855469 -24.578125 613.015625 -15.433594 622.691406 C -6.902344 631.71875 3.304688 639.320312 13.941406 645.695312 C 37.109375 659.585938 63.21875 667.542969 86.808594 680.625 C 92.0625 683.535156 97.34375 686.402344 102.59375 689.3125 C 107.003906 691.753906 111.363281 694.304688 115.363281 697.386719 C 114.519531 696.734375 113.675781 696.082031 112.832031 695.429688 C 115.777344 697.730469 118.464844 700.3125 120.769531 703.261719 C 120.117188 702.417969 119.464844 701.574219 118.8125 700.730469 C 121.050781 703.648438 122.859375 706.835938 124.316406 710.214844 C 123.894531 709.21875 123.472656 708.222656 123.054688 707.226562 C 124.144531 709.816406 125.03125 712.476562 125.769531 715.191406 C 126.59375 718.222656 128.8125 721.085938 131.519531 722.667969 C 134.199219 724.238281 138.152344 724.902344 141.160156 723.929688 C 147.628906 721.839844 151.738281 715.304688 149.898438 708.539062 C 147.128906 698.347656 142.246094 688.683594 134.609375 681.265625 C 127.976562 674.824219 119.863281 670.210938 111.800781 665.832031 C 101.558594 660.273438 91.449219 654.589844 80.839844 649.742188 C 69.179688 644.414062 57.289062 639.605469 45.695312 634.136719 C 34.027344 628.632812 22.714844 622.402344 12.480469 614.511719 C 13.324219 615.164062 14.167969 615.816406 15.011719 616.46875 C 8.15625 611.144531 1.84375 605.140625 -3.5 598.285156 C -2.847656 599.128906 -2.199219 599.976562 -1.542969 600.820312 C -5.523438 595.664062 -8.894531 590.085938 -11.457031 584.097656 C -11.035156 585.09375 -10.617188 586.089844 -10.195312 587.085938 C -10.816406 585.609375 -11.386719 584.121094 -11.910156 582.609375 C -12.980469 579.507812 -14.761719 576.824219 -17.660156 575.128906 C -20.339844 573.5625 -24.292969 572.898438 -27.300781 573.867188 C -30.328125 574.847656 -33.25 576.726562 -34.777344 579.621094 C -36.296875 582.488281 -37.140625 586.085938 -36.039062 589.261719 Z M -36.039062 589.261719 " fill-opacity="1" fill-rule="nonzero"/><g clip-path="url(#a4d477ee4b)"><path fill="#fe9881" d="M 863.519531 360.957031 C 859.015625 360.238281 854.597656 359.070312 850.347656 357.402344 C 850.085938 357.300781 848.332031 356.582031 849.96875 357.261719 C 851.601562 357.941406 849.867188 357.203125 849.605469 357.089844 C 848.59375 356.628906 847.589844 356.140625 846.601562 355.628906 C 844.628906 354.605469 842.707031 353.480469 840.84375 352.269531 C 839.910156 351.660156 838.988281 351.03125 838.082031 350.378906 C 837.78125 350.160156 837.484375 349.9375 837.183594 349.71875 C 835.511719 348.519531 838.996094 351.1875 837.394531 349.890625 C 835.640625 348.472656 833.925781 347.019531 832.28125 345.476562 C 828.933594 342.332031 825.898438 338.90625 823.027344 335.328125 C 822.007812 334.054688 823.417969 335.792969 823.492188 335.933594 C 823.226562 335.445312 822.773438 334.980469 822.445312 334.53125 C 821.75 333.585938 821.070312 332.632812 820.410156 331.667969 C 819.070312 329.71875 817.792969 327.730469 816.574219 325.707031 C 814.203125 321.777344 812.050781 317.71875 810.09375 313.566406 C 809.578125 312.476562 809.078125 311.378906 808.589844 310.277344 C 808.359375 309.753906 808.175781 309.097656 807.867188 308.617188 C 807.960938 308.761719 808.785156 310.835938 808.152344 309.289062 C 807.199219 306.960938 806.28125 304.621094 805.425781 302.253906 C 803.832031 297.835938 802.421875 293.351562 801.191406 288.816406 C 795.535156 267.96875 793.394531 246.308594 789.394531 225.117188 C 785.25 203.175781 779.085938 181.054688 766.839844 162.132812 C 747.6875 132.558594 717.101562 114.328125 685.714844 100.070312 C 654.339844 85.816406 621.15625 74.570312 592.335938 55.289062 C 590.691406 54.191406 589.0625 53.066406 587.457031 51.910156 C 586.582031 51.285156 585.710938 50.648438 584.851562 50 C 584.5625 49.789062 584.277344 49.570312 583.988281 49.355469 C 581.875 47.75 585.1875 50.3125 583.847656 49.25 C 580.625 46.683594 577.476562 44.039062 574.460938 41.226562 C 571.304688 38.285156 568.289062 35.195312 565.441406 31.953125 C 563.96875 30.277344 562.34375 28.585938 561.109375 26.730469 C 562.570312 28.921875 560.515625 25.921875 560.097656 25.34375 C 559.128906 24.019531 558.191406 22.671875 557.277344 21.308594 C 554.28125 16.835938 551.574219 12.171875 549.140625 7.367188 C 547.976562 5.066406 546.875 2.734375 545.832031 0.375 C 545.636719 -0.0742188 544.625 -2.289062 545.707031 0.128906 C 545.421875 -0.511719 545.167969 -1.171875 544.902344 -1.824219 C 544.289062 -3.351562 543.695312 -4.890625 543.128906 -6.4375 C 539.375 -16.644531 536.652344 -27.21875 534.757812 -37.921875 C 534.304688 -40.488281 533.910156 -43.058594 533.539062 -45.636719 C 533.183594 -48.078125 533.804688 -43.390625 533.515625 -45.839844 C 533.429688 -46.542969 533.339844 -47.246094 533.257812 -47.949219 C 533.09375 -49.355469 532.945312 -50.761719 532.804688 -52.167969 C 532.535156 -54.835938 531.886719 -57.148438 529.929688 -59.105469 C 528.226562 -60.808594 525.433594 -62.089844 522.992188 -61.980469 C 518.113281 -61.761719 512.628906 -57.636719 513.175781 -52.167969 C 515.542969 -28.539062 521 -5.355469 531.5625 16.019531 C 540.402344 33.894531 553.15625 49.660156 568.707031 62.128906 C 596.449219 84.371094 629.71875 97.054688 662.058594 110.960938 C 677.839844 117.746094 693.550781 124.871094 708.265625 133.78125 C 711.914062 135.992188 715.492188 138.3125 718.984375 140.761719 C 720.570312 141.875 722.136719 143.019531 723.683594 144.1875 C 724.214844 144.589844 725.691406 145.859375 723.371094 143.941406 C 723.777344 144.277344 724.203125 144.589844 724.617188 144.917969 C 725.441406 145.574219 726.257812 146.238281 727.066406 146.910156 C 733.414062 152.195312 739.300781 158.039062 744.492188 164.464844 C 744.828125 164.878906 745.15625 165.300781 745.484375 165.714844 C 746.730469 167.277344 744.0625 163.8125 745.253906 165.421875 C 745.894531 166.285156 746.535156 167.140625 747.160156 168.015625 C 748.476562 169.871094 749.742188 171.765625 750.945312 173.703125 C 753.796875 178.285156 756.304688 183.074219 758.503906 188.003906 C 758.789062 188.636719 759.113281 189.277344 759.347656 189.929688 C 758.449219 187.441406 759.242188 189.703125 759.429688 190.171875 C 759.953125 191.472656 760.457031 192.78125 760.945312 194.09375 C 761.917969 196.726562 762.820312 199.390625 763.65625 202.070312 C 765.269531 207.242188 766.644531 212.488281 767.859375 217.769531 C 772.945312 239.902344 775.21875 262.566406 780.015625 284.757812 C 788.039062 321.875 808.136719 362.214844 845.652344 376.53125 C 849.742188 378.09375 853.984375 379.191406 858.304688 379.882812 C 860.996094 380.308594 863.425781 380.320312 865.867188 378.890625 C 867.902344 377.699219 869.84375 375.367188 870.378906 373.027344 C 871.449219 368.316406 868.941406 361.820312 863.519531 360.957031 Z M 863.519531 360.957031 " fill-opacity="1" fill-rule="nonzero"/></g><path fill="#fe9881" d="M 870.023438 228.679688 C 869.90625 228.589844 869.789062 228.503906 869.675781 228.414062 C 870.335938 228.925781 871 229.4375 871.660156 229.949219 C 868.589844 227.558594 865.871094 224.796875 863.476562 221.730469 C 863.988281 222.390625 864.496094 223.054688 865.011719 223.714844 C 861.929688 219.703125 859.472656 215.285156 857.492188 210.636719 C 857.824219 211.417969 858.152344 212.199219 858.484375 212.980469 C 855.226562 205.203125 853.320312 196.953125 852.1875 188.617188 C 852.304688 189.488281 852.417969 190.359375 852.535156 191.226562 C 850.0625 172.574219 851.023438 153.574219 846.851562 135.128906 C 843.183594 118.925781 835.023438 104.316406 824.375 91.691406 C 814.308594 79.75 801.773438 69.832031 788.53125 61.640625 C 773.59375 52.394531 757.296875 45.53125 740.90625 39.324219 C 723.957031 32.902344 706.707031 27.289062 689.875 20.539062 C 687.804688 19.710938 685.742188 18.863281 683.6875 17.996094 C 684.46875 18.328125 685.25 18.65625 686.03125 18.988281 C 672.578125 13.296875 659.351562 6.765625 647.742188 -2.195312 C 648.40625 -1.683594 649.066406 -1.171875 649.730469 -0.660156 C 643.960938 -5.152344 638.65625 -10.21875 634.144531 -15.980469 C 634.65625 -15.320312 635.164062 -14.65625 635.675781 -13.996094 C 631.847656 -18.953125 628.632812 -24.339844 626.191406 -30.113281 C 626.523438 -29.332031 626.851562 -28.550781 627.183594 -27.769531 C 625.175781 -32.617188 623.746094 -37.664062 623.035156 -42.863281 C 623.152344 -41.996094 623.269531 -41.125 623.386719 -40.257812 C 622.882812 -44.191406 622.804688 -48.148438 623.195312 -52.097656 C 623.425781 -54.453125 621.933594 -57.425781 620.320312 -59.035156 C 618.617188 -60.738281 615.828125 -62.019531 613.382812 -61.910156 C 610.84375 -61.796875 608.210938 -60.960938 606.441406 -59.035156 C 604.585938 -57.011719 603.835938 -54.824219 603.570312 -52.097656 C 602.277344 -38.980469 605.933594 -25.636719 612.148438 -14.152344 C 618.519531 -2.375 627.875 7.132812 638.421875 15.199219 C 648.015625 22.535156 658.757812 28.222656 669.746094 33.15625 C 682.417969 38.847656 695.421875 43.710938 708.492188 48.390625 C 722.4375 53.386719 736.441406 58.242188 750.105469 63.988281 C 749.324219 63.65625 748.542969 63.328125 747.761719 62.996094 C 763.679688 69.71875 779.007812 77.742188 792.71875 88.332031 C 792.054688 87.820312 791.394531 87.308594 790.730469 86.796875 C 799.183594 93.367188 806.949219 100.820312 813.507812 109.296875 C 812.996094 108.632812 812.484375 107.972656 811.972656 107.308594 C 816.902344 113.730469 821.082031 120.691406 824.257812 128.144531 C 823.929688 127.363281 823.597656 126.582031 823.269531 125.800781 C 826.546875 133.613281 828.523438 141.8125 829.679688 150.195312 C 829.5625 149.324219 829.445312 148.457031 829.328125 147.585938 C 831.238281 161.851562 830.984375 176.304688 832.824219 190.574219 C 834.523438 203.707031 837.59375 216.796875 844.445312 228.296875 C 848.539062 235.164062 853.796875 240.800781 860.117188 245.625 C 862 247.0625 865.515625 247.210938 867.679688 246.617188 C 869.957031 245.988281 872.421875 244.230469 873.542969 242.105469 C 874.746094 239.828125 875.351562 237.070312 874.535156 234.542969 C 874.203125 233.761719 873.875 232.980469 873.542969 232.199219 C 872.667969 230.726562 871.496094 229.550781 870.023438 228.679688 Z M 870.023438 228.679688 " fill-opacity="1" fill-rule="nonzero"/><path fill="#fe9881" d="M 875.464844 42.117188 C 872.039062 32.238281 866.472656 23.488281 859.300781 15.898438 C 852.609375 8.816406 844.605469 2.855469 836.261719 -2.144531 C 818.09375 -13.035156 797.613281 -19.28125 779.113281 -29.539062 C 774.992188 -31.824219 770.851562 -34.070312 766.730469 -36.351562 C 763.273438 -38.265625 759.855469 -40.269531 756.71875 -42.683594 C 757.378906 -42.171875 758.042969 -41.660156 758.703125 -41.148438 C 756.390625 -42.953125 754.285156 -44.980469 752.476562 -47.292969 C 752.992188 -46.628906 753.5 -45.96875 754.011719 -45.304688 C 752.257812 -47.597656 750.839844 -50.097656 749.695312 -52.746094 C 750.027344 -51.964844 750.355469 -51.183594 750.6875 -50.402344 C 749.828125 -52.433594 749.136719 -54.519531 748.558594 -56.648438 C 747.910156 -59.027344 746.171875 -61.273438 744.046875 -62.511719 C 741.945312 -63.746094 738.84375 -64.265625 736.484375 -63.503906 C 731.410156 -61.863281 728.1875 -56.738281 729.628906 -51.429688 C 731.804688 -43.4375 735.632812 -35.859375 741.621094 -30.042969 C 746.824219 -24.992188 753.1875 -21.371094 759.511719 -17.9375 C 767.542969 -13.578125 775.472656 -9.121094 783.792969 -5.316406 C 792.9375 -1.140625 802.265625 2.632812 811.359375 6.921875 C 820.507812 11.238281 829.382812 16.125 837.410156 22.3125 C 836.746094 21.800781 836.085938 21.289062 835.421875 20.777344 C 840.800781 24.957031 845.75 29.664062 849.941406 35.039062 C 849.429688 34.378906 848.921875 33.714844 848.40625 33.050781 C 851.527344 37.097656 854.171875 41.46875 856.183594 46.167969 C 855.851562 45.386719 855.523438 44.605469 855.191406 43.824219 C 855.679688 44.980469 856.125 46.148438 856.535156 47.335938 C 857.378906 49.765625 858.777344 51.871094 861.046875 53.199219 C 863.148438 54.429688 866.25 54.953125 868.609375 54.191406 C 870.984375 53.421875 873.273438 51.949219 874.472656 49.679688 C 875.664062 47.429688 876.324219 44.605469 875.464844 42.117188 Z M 875.464844 42.117188 " fill-opacity="1" fill-rule="nonzero"/><path fill="#964f4f" d="M 126.792969 809.601562 C 145.367188 809.496094 191.046875 731.222656 209.617188 731.113281 C 209.617188 731.113281 423.257812 369.410156 358.199219 518.746094 C 407.125 518.832031 728.59375 529.367188 693.570312 809.539062 C 691.046875 812.367188 324.707031 811.304688 321.691406 811.304688 C 259.734375 811.367188 197.753906 811.367188 135.792969 811.304688 C 132.757812 811.304688 129.40625 812.242188 126.792969 809.625 Z M 126.792969 809.601562 " fill-opacity="1" fill-rule="nonzero"/><path fill="#191919" d="M 181.707031 577.574219 C 183.171875 458.5 190.832031 340.230469 228.636719 226.042969 C 244.449219 178.300781 266.972656 134.171875 300.507812 96.199219 C 314.644531 80.210938 330.753906 66.703125 348.628906 54.917969 C 360.132812 47.335938 371.59375 49.457031 383.289062 51.644531 C 457.644531 65.492188 521.917969 98.238281 574.621094 153.179688 C 597.164062 176.6875 604.144531 206.484375 610.492188 236.617188 C 626.539062 312.859375 634.476562 390.09375 638.679688 467.800781 C 641.164062 513.734375 643.09375 559.648438 642.523438 605.667969 C 639.234375 609.683594 635.601562 608.089844 632.183594 606.074219 C 614.886719 595.859375 596.800781 587.425781 577.675781 581.226562 C 574.175781 580.101562 571.289062 578.273438 570.417969 574.34375 C 568.0625 569.101562 567.488281 563.558594 567.339844 557.867188 C 566.023438 506.410156 559.742188 455.398438 553.011719 404.453125 C 551.761719 395.023438 553.734375 384.957031 548.617188 376.121094 C 545.011719 364.972656 548.089844 353.207031 545.054688 341.886719 C 538.027344 315.617188 533.675781 288.734375 526.902344 262.421875 C 528.878906 256.664062 525.292969 252.4375 522.851562 247.875 C 522.53125 232.921875 517.417969 220.585938 505.382812 210.835938 C 469.425781 181.65625 432.386719 153.984375 393.457031 128.90625 C 379.148438 119.6875 376.519531 120.261719 367.816406 134.765625 C 349.371094 165.496094 328.675781 194.355469 301.316406 218.015625 C 292.929688 225.257812 291.421875 235.492188 293.375 246.21875 C 293.417969 260.191406 293.695312 274.164062 293.183594 288.117188 C 293.015625 292.851562 293.523438 298.226562 287.644531 300.519531 C 283.398438 300.457031 281.066406 297.332031 280.109375 294.105469 C 277.457031 285.269531 271.894531 281.511719 262.851562 281.871094 C 252.855469 282.277344 245.191406 286.164062 240.480469 295.273438 C 229.445312 316.636719 239.335938 347.175781 260.964844 358.132812 C 265.507812 362.296875 271.214844 364.761719 276.097656 368.457031 C 281.46875 371.597656 282.148438 376.523438 281.914062 382.195312 C 280.214844 426.304688 277.476562 470.414062 278.710938 514.585938 C 279.28125 535.398438 281.746094 556.167969 280.34375 577.042969 C 280.171875 583.457031 275.101562 584.835938 270.429688 586.40625 C 251.347656 592.820312 232.011719 598.46875 213.628906 606.878906 C 205.902344 610.425781 198.558594 614.632812 190.941406 618.328125 C 183.679688 621.832031 181.070312 620.28125 181.113281 612.507812 C 181.195312 600.871094 180.179688 589.210938 181.726562 577.617188 Z M 181.707031 577.574219 " fill-opacity="1" fill-rule="nonzero"/><path fill="#964f4f" d="M 126.710938 761.78125 C 125.671875 754.347656 126.160156 746.914062 126.984375 739.503906 C 133.863281 739.269531 133.628906 744.621094 133.90625 748.953125 C 134.628906 760.226562 134.140625 771.550781 134.246094 782.867188 C 134.289062 786.054688 134.074219 789.257812 134.820312 792.363281 C 135.476562 795.183594 136.390625 798.140625 140.0625 797.84375 C 143.011719 797.609375 144.15625 794.992188 144.371094 792.53125 C 145.070312 784.800781 147.003906 777.117188 146.257812 769.363281 C 144.09375 746.679688 146.917969 724.382812 150.589844 702.0625 C 155.855469 669.933594 174.976562 647.824219 201.617188 631.558594 C 234.027344 611.765625 270.175781 602.082031 307.089844 595.070312 C 315.769531 593.414062 322.710938 590.78125 324.175781 580.824219 C 324.558594 578.273438 326.191406 575.851562 328.953125 575.875 C 332.855469 575.917969 331.667969 579.398438 331.605469 581.542969 C 331.242188 591.398438 332.792969 601.292969 330.734375 611.105469 C 330.988281 620.9375 331.476562 630.769531 331.476562 640.605469 C 331.476562 693.417969 331.414062 746.234375 331.308594 799.070312 C 331.308594 802.578125 330.863281 806.0625 330.605469 809.5625 C 327.316406 811.472656 323.6875 810.582031 320.226562 810.582031 C 275.695312 810.648438 231.164062 810.648438 186.671875 810.605469 C 185.273438 810.519531 183.660156 810.308594 183.449219 808.652344 C 180.984375 789.195312 179.753906 769.722656 183 752.902344 C 179.964844 767.664062 181.070312 785.160156 182.535156 802.660156 C 182.769531 805.566406 184.910156 809.011719 180.304688 810.582031 C 162.453125 810.054688 144.582031 811.894531 126.796875 809.625 L 126.796875 809.667969 C 125.140625 793.722656 125.308594 777.773438 126.710938 761.820312 Z M 126.710938 761.78125 " fill-opacity="1" fill-rule="nonzero"/><path fill="#964f4f" d="M 693.742188 787.132812 C 694.546875 802.273438 687.710938 809.863281 673.238281 809.90625 C 630.488281 809.96875 587.71875 809.90625 544.96875 810.117188 C 538.410156 810.160156 534.566406 809.453125 534.652344 801.195312 C 535.308594 723.425781 535.585938 645.636719 535.96875 567.847656 C 536.816406 566.957031 537.835938 566.65625 539.023438 566.976562 C 540.277344 567.699219 541.570312 568.695312 541.742188 570.054688 C 543.566406 584.15625 554.457031 586.855469 565.644531 590.058594 C 585.636719 595.773438 605.503906 601.71875 623.589844 612.65625 C 654.726562 631.492188 670.328125 659.972656 675.0625 694.90625 C 679.242188 725.699219 680.960938 756.707031 679.03125 787.820312 C 678.988281 788.515625 678.796875 789.214844 678.839844 789.921875 C 678.945312 792.65625 678.289062 796.3125 682.128906 796.566406 C 685.1875 796.777344 685.421875 793.425781 685.929688 791.042969 C 686.3125 789.328125 686.25 787.523438 686.523438 785.78125 C 687.117188 781.933594 687.691406 776.621094 692.636719 777.898438 C 696.585938 778.914062 694.335938 783.824219 693.742188 787.113281 Z M 693.742188 787.132812 " fill-opacity="1" fill-rule="nonzero"/><path fill="#fe9881" d="M 515.464844 563.515625 C 510.6875 572.964844 505.847656 582.394531 501.117188 591.867188 C 487.253906 619.6875 470.296875 645.167969 445.460938 664.539062 C 433.277344 674.03125 427.78125 674.328125 414.960938 665.410156 C 385.304688 644.808594 365.4375 616.4375 350.921875 583.839844 C 348.289062 577.933594 347.820312 570.523438 340.988281 567.019531 C 342.515625 559.054688 348.96875 561.15625 354.105469 560.542969 C 376.796875 563.367188 397.574219 556.996094 417.125 546.355469 C 443.253906 532.125 465.011719 512.695312 482.863281 488.824219 C 486.066406 484.554688 488.78125 478.355469 496.253906 481.988281 C 502.707031 489.503906 502.324219 499.019531 503.175781 507.917969 C 504.085938 517.347656 505.699219 526.691406 506.273438 536.160156 C 506.867188 546.121094 509.859375 555.230469 515.464844 563.515625 Z M 515.464844 563.515625 " fill-opacity="1" fill-rule="nonzero"/><path fill="#191919" d="M 355.929688 565.214844 C 350.921875 565.554688 345.785156 564.9375 340.988281 567.039062 C 338.375 567.273438 335.765625 567.484375 333.15625 567.71875 C 330.457031 571.628906 326.742188 573.984375 322.136719 574.984375 C 310.738281 577.445312 299.339844 579.824219 287.878906 581.96875 C 283.761719 582.734375 280.109375 582.265625 277.777344 578.230469 C 277.011719 575.554688 275.632812 572.902344 275.589844 570.203125 C 274.933594 524.503906 270.453125 478.824219 275.164062 433.058594 C 276.992188 415.238281 273.828125 397.125 277.03125 379.285156 C 277.882812 374.550781 274.421875 372.382812 271.152344 370.175781 C 275.949219 365.503906 282.488281 364.761719 288.453125 363.464844 C 296.519531 361.722656 300.316406 367.457031 303.183594 374.0625 C 310.082031 389.863281 317.234375 405.40625 328.082031 419.148438 C 338.25 432.058594 350.730469 442.105469 363.761719 451.726562 C 367.648438 454.59375 372.421875 456.84375 372.335938 462.832031 C 373.207031 484.300781 369.027344 505.367188 366.863281 526.5625 C 365.90625 535.972656 365.097656 545.421875 363.359375 554.765625 C 362.445312 559.628906 360.769531 563.453125 355.886719 565.234375 Z M 355.929688 565.214844 " fill-opacity="1" fill-rule="nonzero"/><path fill="#191919" d="M 515.464844 563.515625 C 505.636719 563.707031 503.046875 558.671875 502.21875 549.199219 C 500.285156 526.945312 498.441406 504.605469 493.960938 482.625 C 486.363281 476.125 487.679688 467.546875 488.441406 459.09375 C 487.699219 453.019531 491.246094 449.15625 495.488281 445.757812 C 516.417969 429.042969 530.046875 406.9375 541.59375 383.320312 C 543.757812 378.902344 545.054688 373.699219 551.632812 374.296875 C 557.660156 380.15625 556.089844 388.25 557.152344 395.296875 C 563.414062 436.433594 566.660156 477.910156 570.886719 519.277344 C 572.753906 537.519531 569.867188 556.019531 574.621094 573.984375 C 573.027344 576.554688 570.671875 578.613281 567.722656 577.890625 C 557.683594 575.40625 546.515625 575.894531 538.558594 567.527344 C 537.667969 567.632812 536.796875 567.742188 535.902344 567.847656 C 529.515625 564.320312 522.46875 563.980469 515.421875 563.535156 Z M 515.464844 563.515625 " fill-opacity="1" fill-rule="nonzero"/><path fill="#964f4f" d="M 277.796875 578.210938 L 277.859375 578.1875 C 277.839844 578.195312 277.820312 578.203125 277.796875 578.210938 C 296.265625 574.707031 314.710938 571.203125 333.175781 567.699219 L 330.753906 611.085938 L 330.753906 580.714844 C 327.214844 596.464844 327.148438 596.476562 310.457031 599.785156 L 309.804688 599.914062 C 274.039062 606.988281 239.164062 616.4375 206.964844 634.464844 C 171.222656 654.472656 154.558594 685.519531 152.480469 725.273438 C 151.226562 749.125 150.757812 773.039062 150.335938 796.90625 C 150.207031 804.699219 146.9375 807.457031 139.402344 807.457031 C 131.445312 807.457031 128.875 803.789062 129.003906 796.398438 C 129.234375 781.914062 129.066406 767.429688 129.046875 752.925781 C 129.046875 748.359375 129.492188 743.6875 127.027344 739.484375 C 126.6875 714.273438 129.066406 689.46875 138.9375 665.980469 C 146.070312 648.972656 172.644531 624.929688 187.691406 614.503906 C 215.523438 596.910156 247.082031 588.605469 277.796875 578.210938 Z M 277.796875 578.210938 " fill-opacity="1" fill-rule="nonzero"/><path fill="#964f4f" d="M 538.601562 567.507812 C 551.125 566.914062 562.4375 572.988281 574.664062 573.984375 C 598.351562 582.246094 621.019531 592.695312 642.523438 605.691406 C 677.886719 631.132812 692.871094 666.746094 694.503906 709.199219 C 695.503906 735.191406 697.136719 761.1875 693.742188 787.140625 C 693.570312 785.757812 693.421875 784.355469 693.253906 782.957031 C 692.617188 782.910156 692 782.84375 691.363281 782.800781 C 691.363281 787.457031 691.171875 792.109375 691.40625 796.734375 C 691.765625 804.339844 688.582031 807.742188 680.773438 807.394531 C 672.535156 807.035156 672.027344 801.707031 672.453125 795.675781 C 672.75 791.472656 674 787.308594 674.128906 783.105469 C 675.042969 747.445312 674.59375 711.832031 665.636719 677.003906 C 656.214844 640.285156 631.359375 618.261719 596.632812 605.839844 C 579.695312 599.789062 562.820312 593.671875 545.011719 590.65625 C 540.808594 589.933594 538.917969 587.429688 538.792969 583.390625 C 538.644531 578.105469 538.664062 572.816406 538.601562 567.507812 Z M 538.601562 567.507812 " fill-opacity="1" fill-rule="nonzero"/><path fill="#964f4f" d="M 126.710938 761.78125 C 126.753906 777.730469 126.773438 793.679688 126.816406 809.625 C 124.503906 793.679688 125.054688 777.730469 126.710938 761.78125 Z M 126.710938 761.78125 " fill-opacity="1" fill-rule="nonzero"/><path fill="#fe9881" d="M 551.652344 374.296875 C 538.132812 406.597656 518.945312 434.777344 491.5 456.925781 C 478.105469 475.425781 458.089844 480.691406 437.183594 483.21875 C 418.183594 485.511719 400.058594 480.859375 382.441406 473.8125 C 376.222656 471.324219 371.804688 467.140625 368.644531 461.410156 C 335.46875 440.914062 311.417969 412.839844 298.195312 375.929688 C 295.710938 368.964844 291.996094 366.648438 284.695312 368.859375 C 280.449219 370.152344 275.695312 369.773438 271.152344 370.152344 C 266.609375 367.160156 260.5625 367.4375 256.527344 363.359375 C 257.230469 357.15625 261.324219 357.410156 265.761719 358.582031 C 270.238281 359.75 274.738281 360.554688 279.390625 360.300781 C 286.5 359.898438 290.679688 356.734375 290.171875 348.980469 C 289.789062 343.183594 289.40625 336.832031 296.75 335.261719 C 304.5625 333.605469 308.171875 338.976562 310.441406 345.476562 C 312.714844 350.679688 315.429688 356.710938 321.414062 356.925781 C 330.5625 357.261719 340.136719 359.449219 348.945312 355.351562 C 353.296875 353.335938 353.765625 348.789062 353.085938 344.351562 C 352.023438 337.429688 349.753906 331.480469 342.515625 328.488281 C 336.1875 325.875 329.101562 327.46875 322.921875 324.429688 C 318 320.015625 313.988281 320.820312 309.761719 325.875 C 302.695312 334.285156 293.671875 337.660156 282.722656 334.519531 C 275.757812 328.933594 275.484375 319.570312 270.496094 312.878906 C 273.804688 306.039062 275.078125 297.058594 285.863281 297.90625 C 289.9375 291.410156 286.921875 284.335938 287.328125 277.5625 C 288.007812 265.945312 288.046875 254.308594 288.34375 242.667969 C 291.742188 235.535156 296.773438 229.695312 302.441406 224.277344 C 325.957031 201.769531 348.203125 178.152344 366.480469 151.011719 C 372.953125 141.390625 377.367188 140.710938 388.128906 145.683594 C 433.339844 166.601562 473.097656 196.035156 512.472656 225.976562 C 516.675781 229.164062 526.140625 233.199219 517.3125 241.523438 C 511.28125 244.261719 505.53125 241.394531 499.734375 240.503906 C 491.734375 239.273438 483.859375 236.832031 475.664062 237.339844 C 471.757812 237.574219 465.5625 236.085938 465.496094 241.734375 C 465.457031 246.492188 471.398438 245.875 475.027344 245.726562 C 485.34375 245.34375 495.574219 246.640625 505.507812 248.617188 C 514.210938 250.335938 525.226562 248.617188 530.066406 259.597656 C 537.835938 273.867188 538.683594 290.007812 541.996094 305.402344 C 546.09375 324.390625 548.683594 343.714844 552.3125 362.804688 C 553.097656 366.90625 552.015625 370.472656 551.589844 374.296875 Z M 551.652344 374.296875 " fill-opacity="1" fill-rule="nonzero"/><path fill="#191919" d="M 517.011719 238.742188 C 517.246094 234.304688 513.296875 232.839844 510.730469 230.925781 C 472.015625 202.066406 433.234375 173.332031 389.65625 151.863281 C 379.851562 147.042969 374.203125 147.722656 368.089844 157.320312 C 348.605469 187.921875 322.160156 212.472656 296.242188 237.382812 C 293.992188 239.527344 291 240.90625 288.367188 242.648438 C 287.367188 228.800781 291.445312 218.417969 303.054688 208.820312 C 331.222656 185.523438 350.453125 154.664062 368.261719 123.171875 C 373.121094 114.570312 376.964844 112.554688 385.941406 118.054688 C 431.898438 146.214844 474.773438 178.578125 516.078125 213.023438 C 526.289062 221.539062 525.015625 235.46875 528.15625 247.234375 C 520.792969 249.210938 517.078125 246.367188 517.011719 238.742188 Z M 517.011719 238.742188 " fill-opacity="1" fill-rule="nonzero"/><path fill="#fe9881" d="M 305.050781 348.8125 C 304.476562 347.535156 303.863281 346.285156 303.351562 344.988281 C 302.269531 342.164062 301.929688 337.894531 297.429688 339.808594 C 293.738281 341.378906 294.96875 345.074219 295.667969 348.132812 C 298.894531 362.167969 296.625 364.441406 282.128906 365.90625 C 273.234375 366.800781 265.316406 361.574219 256.550781 363.335938 C 234.964844 349.128906 225.175781 322.457031 232.882812 298.800781 C 239.015625 279.960938 257.121094 271.507812 275.929688 277.859375 C 286.605469 281.46875 283.421875 290.8125 285.882812 297.886719 C 281.449219 302.621094 279.792969 309.734375 273.296875 312.730469 C 271.386719 315.425781 268.03125 311.160156 266.25 314.28125 C 265.253906 317.636719 264.359375 320.863281 261.8125 323.519531 C 257.992188 327.488281 257.355469 331.949219 261.199219 336.472656 C 265.59375 341.675781 269.6875 338.871094 273.785156 336.046875 C 277.519531 335.242188 280.214844 331.929688 284.207031 331.757812 C 293.714844 331.671875 302.121094 329.527344 308.828125 321.777344 C 313.117188 316.808594 318.847656 314.875 324.238281 321.183594 C 324.429688 322.945312 324.621094 325.089844 323.179688 326.066406 C 315.34375 331.3125 310.738281 338.746094 307.726562 347.453125 C 307.429688 348.300781 306.070312 348.597656 305.03125 348.789062 Z M 305.050781 348.8125 " fill-opacity="1" fill-rule="nonzero"/><path fill="#191919" d="M 517.011719 238.742188 C 520.726562 241.566406 524.441406 244.410156 528.15625 247.234375 C 530.703125 251.058594 533.484375 254.839844 530.109375 259.59375 C 509.667969 253.5625 488.804688 250.589844 467.472656 250.996094 C 460.679688 251.121094 453.949219 249.890625 454.078125 241.226562 C 454.226562 232.414062 461.402344 232.261719 467.9375 231.859375 C 484.769531 230.820312 500.796875 235.429688 517.011719 238.742188 Z M 517.011719 238.742188 " fill-opacity="1" fill-rule="nonzero"/><path fill="#964f4f" d="M 183.808594 809.285156 C 183.363281 809.285156 182.917969 809.285156 182.472656 809.242188 C 175.636719 783.972656 177.929688 759.0625 185.972656 734.386719 C 183.042969 759.316406 184.402344 784.332031 183.808594 809.285156 Z M 183.808594 809.285156 " fill-opacity="1" fill-rule="nonzero"/><path fill="#964f4f" d="M 636.386719 803.597656 C 636.535156 779.492188 634.945312 755.347656 639.488281 729.246094 L 639.488281 803.707031 Z M 636.386719 803.597656 " fill-opacity="1" fill-rule="nonzero"/><path fill="#f7705c" d="M 368.664062 461.386719 C 394.410156 474.46875 420.902344 482.878906 450.277344 475.890625 C 465.347656 472.300781 477.617188 462.894531 491.519531 456.90625 C 492.179688 465.484375 494.957031 473.875 493.984375 482.601562 C 474.179688 510.976562 450.066406 534.824219 419.394531 551.199219 C 399.738281 561.6875 379.066406 569.523438 355.949219 565.214844 C 360.894531 544.570312 361.277344 523.3125 364.269531 502.417969 C 366.222656 488.804688 367.242188 475.0625 368.664062 461.386719 Z M 368.664062 461.386719 " fill-opacity="1" fill-rule="nonzero"/><path fill="#ffffff" d="M 426.867188 368.222656 C 437.4375 368.222656 448.007812 368.222656 458.601562 368.222656 C 462.398438 368.222656 465.328125 368.945312 465.921875 373.785156 C 468.40625 394.46875 450.511719 416.089844 429.816406 417.109375 C 404.367188 418.363281 387.003906 401.160156 387.132812 375.378906 C 387.175781 369.113281 390.550781 368.433594 395.15625 368.414062 C 405.726562 368.371094 416.296875 368.414062 426.886719 368.414062 C 426.886719 368.347656 426.886719 368.285156 426.886719 368.222656 Z M 426.867188 368.222656 " fill-opacity="1" fill-rule="nonzero"/><path fill="#f7705c" d="M 515.273438 323.453125 C 535.902344 323.261719 543.058594 328.679688 545.730469 344.671875 C 547.046875 352.589844 543.609375 356.902344 537.367188 359.769531 C 525.183594 365.375 512.535156 365.164062 500.265625 360.535156 C 491.5 357.222656 488.570312 349.660156 490.097656 340.65625 C 491.628906 331.714844 495.296875 324.367188 505.742188 323.496094 C 508.882812 323.242188 512.089844 323.453125 515.25 323.453125 Z M 515.273438 323.453125 " fill-opacity="1" fill-rule="nonzero"/><path fill="#f7705c" d="M 305.050781 348.8125 C 302.695312 333.519531 311.992188 326.320312 324.261719 321.203125 C 330.222656 321.246094 336.167969 320.96875 342.070312 322.457031 C 353.339844 325.28125 359.175781 333.4375 357.882812 344.90625 C 356.628906 355.988281 350.835938 361.382812 338.671875 361.40625 C 326.042969 361.425781 311.886719 364.675781 305.050781 348.832031 Z M 305.050781 348.8125 " fill-opacity="1" fill-rule="nonzero"/><path fill="#191919" d="M 310.84375 264.882812 C 315.832031 253.035156 321.457031 245.644531 329.96875 241.863281 C 346.269531 234.664062 363.65625 231.710938 381.484375 232.285156 C 387.195312 232.476562 392.035156 234.769531 391.949219 241.652344 C 391.863281 247.511719 388.488281 250.847656 382.695312 251.078125 C 359.09375 251.992188 335.765625 254.351562 310.84375 264.882812 Z M 310.84375 264.882812 " fill-opacity="1" fill-rule="nonzero"/><path fill="#191919" d="M 472.949219 295.824219 C 472.648438 282.746094 482.097656 274.269531 493.34375 276.902344 C 502.386719 279.007812 509.648438 284.910156 517.289062 289.835938 C 519.242188 291.089844 520.132812 293.191406 518.902344 295.316406 C 517.394531 297.90625 515.316406 296.527344 513.488281 295.507812 C 511.960938 294.65625 510.496094 293.679688 508.988281 292.765625 C 501.941406 288.449219 497.613281 290.140625 496 297.84375 C 494.660156 304.234375 490.542969 308.035156 484.21875 307.589844 C 476.8125 307.082031 473.476562 301.8125 472.96875 295.847656 Z M 472.949219 295.824219 " fill-opacity="1" fill-rule="nonzero"/><path fill="#191919" d="M 339.671875 287.585938 C 335.191406 290.539062 331.691406 292.875 328.167969 295.125 C 326.402344 296.25 324.324219 297.757812 322.730469 295.273438 C 321.4375 293.257812 322.285156 291.089844 324.132812 289.6875 C 331.160156 284.359375 338.417969 279.28125 347.035156 276.902344 C 351.917969 275.546875 357.667969 275.140625 360.003906 280.683594 C 363.082031 287.988281 366.667969 295.890625 360.175781 303.449219 C 356.628906 307.589844 352.257812 309.246094 346.992188 306.785156 C 339.988281 303.492188 338.84375 297.738281 340.390625 290.855469 C 340.519531 290.261719 340.136719 289.5625 339.714844 287.628906 Z M 339.671875 287.585938 " fill-opacity="1" fill-rule="nonzero"/><path fill="#f7705c" d="M 262.683594 312.6875 C 259.796875 309.863281 255.234375 308.652344 253.980469 303.28125 C 262.726562 302.496094 267.332031 309.097656 273.296875 312.75 C 277.542969 318.742188 281.574219 324.855469 284.207031 331.757812 C 284.164062 337.640625 283.65625 343.140625 275.503906 342.292969 C 262.578125 338.640625 262.621094 338.597656 264.59375 324.878906 C 265.210938 320.695312 265.359375 316.425781 262.683594 312.6875 Z M 262.683594 312.6875 " fill-opacity="1" fill-rule="nonzero"/><path fill="#f7705c" d="M 429.539062 284.507812 C 430.539062 303.894531 431.558594 323.285156 432.46875 342.671875 C 432.554688 344.375 432.195312 346.519531 429.902344 346.539062 C 427.84375 346.539062 426.867188 344.691406 426.867188 342.90625 C 426.78125 323.476562 426.824219 304.042969 426.824219 284.613281 C 427.738281 284.589844 428.628906 284.546875 429.539062 284.527344 Z M 429.539062 284.507812 " fill-opacity="1" fill-rule="nonzero"/><path fill="#f7705c" d="M 262.683594 312.6875 C 268.753906 317.867188 277.179688 321.605469 268.753906 332.246094 C 265.441406 336.429688 272.746094 339.105469 275.484375 342.269531 C 272.746094 342.800781 269.984375 343.289062 267.269531 343.84375 C 261.410156 345.03125 256.699219 343.097656 254.003906 337.917969 C 251.074219 332.289062 250.945312 326.40625 255.59375 321.394531 C 258.164062 318.632812 261.960938 316.933594 262.664062 312.667969 Z M 262.683594 312.6875 " fill-opacity="1" fill-rule="nonzero"/><path fill="#f7705c" d="M 499.882812 339.277344 C 503.746094 330.867188 511.558594 330.949219 519.03125 330.25 C 512.832031 333.5625 505.128906 333.796875 499.882812 339.277344 Z M 499.882812 339.277344 " fill-opacity="1" fill-rule="nonzero"/><path fill="#f7705c" d="M 531.914062 349.046875 C 526.457031 353.949219 520.195312 353.121094 513.785156 351.53125 C 519.835938 350.703125 525.863281 349.875 531.914062 349.046875 Z M 531.914062 349.046875 " fill-opacity="1" fill-rule="nonzero"/><path fill="#f7705c" d="M 350.496094 350.128906 C 339.925781 354.269531 331.796875 353.015625 323.601562 350.828125 C 331.539062 348.515625 339.585938 348.21875 350.496094 350.128906 Z M 350.496094 350.128906 " fill-opacity="1" fill-rule="nonzero"/></svg>