<svg xmlns="http://www.w3.org/2000/svg" xmlns:xlink="http://www.w3.org/1999/xlink" width="500" zoomAndPan="magnify" viewBox="0 0 375 374.999991" height="500" preserveAspectRatio="xMidYMid meet" version="1.0"><defs><g/></defs><g fill="#cfd8dc" fill-opacity="1"><g transform="translate(29.525675, 203.249958)"><g><path d="M 35.265625 -40.65625 L 24.40625 -40.703125 C 21.25 -40.734375 18.640625 -40.539062 16.578125 -40.125 C 14.515625 -39.71875 12.753906 -39.03125 11.296875 -38.0625 C 9.847656 -37.101562 8.570312 -35.835938 7.46875 -34.265625 C 6.363281 -32.691406 5.210938 -30.757812 4.015625 -28.46875 C 3.941406 -28.21875 4.039062 -28.054688 4.3125 -27.984375 C 4.59375 -27.910156 4.820312 -28.003906 5 -28.265625 C 5.6875 -29.097656 6.554688 -29.820312 7.609375 -30.4375 C 8.660156 -31.050781 9.875 -31.554688 11.25 -31.953125 L 1.40625 0 L 22.65625 0 C 24.613281 0 26.296875 -0.078125 27.703125 -0.234375 C 29.117188 -0.398438 30.300781 -0.628906 31.25 -0.921875 C 33.488281 -1.648438 35.425781 -2.863281 37.0625 -4.5625 C 38.695312 -6.269531 39.875 -8.335938 40.59375 -10.765625 C 42.082031 -15.285156 40.957031 -18.4375 37.21875 -20.21875 C 38.238281 -20.582031 39.238281 -21.097656 40.21875 -21.765625 C 41.195312 -22.429688 42.09375 -23.191406 42.90625 -24.046875 C 43.71875 -24.898438 44.429688 -25.820312 45.046875 -26.8125 C 45.660156 -27.8125 46.132812 -28.835938 46.46875 -29.890625 C 47.082031 -31.847656 47.125 -33.628906 46.59375 -35.234375 C 46.070312 -36.847656 45.160156 -38.144531 43.859375 -39.125 C 43.523438 -39.382812 43.0625 -39.59375 42.46875 -39.75 C 41.875 -39.914062 41.1875 -40.050781 40.40625 -40.15625 C 39.625 -40.269531 38.789062 -40.351562 37.90625 -40.40625 C 37.019531 -40.457031 36.125 -40.503906 35.21875 -40.546875 Z M 15.59375 -7.234375 L 18.421875 -16.625 L 24.625 -16.625 C 25.882812 -16.625 26.8125 -16.5625 27.40625 -16.4375 C 28.007812 -16.3125 28.546875 -16.085938 29.015625 -15.765625 C 30.066406 -15.003906 30.320312 -13.804688 29.78125 -12.171875 C 29.5625 -11.410156 29.160156 -10.675781 28.578125 -9.96875 C 28.003906 -9.257812 27.335938 -8.671875 26.578125 -8.203125 C 26.242188 -8.023438 25.914062 -7.867188 25.59375 -7.734375 C 25.269531 -7.609375 24.925781 -7.507812 24.5625 -7.4375 C 24.195312 -7.375 23.769531 -7.320312 23.28125 -7.28125 C 22.789062 -7.25 22.222656 -7.234375 21.578125 -7.234375 Z M 20.65625 -23.859375 L 23.421875 -32.9375 L 32.9375 -32.9375 L 32.9375 -32.984375 C 33.289062 -32.910156 33.648438 -32.710938 34.015625 -32.390625 C 35.066406 -31.628906 35.335938 -30.429688 34.828125 -28.796875 C 34.578125 -28.035156 34.160156 -27.300781 33.578125 -26.59375 C 33.003906 -25.894531 32.335938 -25.304688 31.578125 -24.828125 C 30.921875 -24.429688 30.265625 -24.171875 29.609375 -24.046875 C 28.960938 -23.921875 27.988281 -23.859375 26.6875 -23.859375 Z M 20.65625 -23.859375 "/></g></g></g><g fill="#cfd8dc" fill-opacity="1"><g transform="translate(77.769797, 203.249958)"><g><path d="M 26.515625 0 L 37.9375 0 L 33.796875 -12.609375 C 35.171875 -13.328125 36.429688 -14.273438 37.578125 -15.453125 C 38.722656 -16.640625 39.710938 -17.882812 40.546875 -19.1875 C 41.734375 -21 42.625 -22.9375 43.21875 -25 C 43.820312 -27.0625 44.125 -29.160156 44.125 -31.296875 C 44.125 -32.859375 43.78125 -34.21875 43.09375 -35.375 C 42.40625 -36.53125 41.515625 -37.488281 40.421875 -38.25 C 39.335938 -39.019531 38.109375 -39.582031 36.734375 -39.9375 C 35.359375 -40.300781 33.984375 -40.484375 32.609375 -40.484375 L 12.125 -40.484375 L -0.109375 0 L 11.625 0 L 15.109375 -11.515625 L 22.609375 -11.515625 Z M 17.609375 -19.828125 L 21.625 -33.15625 L 29.125 -33.15625 C 29.632812 -33.15625 30.097656 -33.035156 30.515625 -32.796875 C 30.929688 -32.554688 31.285156 -32.242188 31.578125 -31.859375 C 31.867188 -31.484375 32.09375 -31.0625 32.25 -30.59375 C 32.414062 -30.125 32.5 -29.671875 32.5 -29.234375 C 32.5 -27.960938 32.269531 -26.765625 31.8125 -25.640625 C 31.363281 -24.523438 30.722656 -23.515625 29.890625 -22.609375 C 29.566406 -22.242188 29.25 -21.890625 28.9375 -21.546875 C 28.625 -21.203125 28.242188 -20.898438 27.796875 -20.640625 C 27.347656 -20.390625 26.785156 -20.191406 26.109375 -20.046875 C 25.441406 -19.898438 24.597656 -19.828125 23.578125 -19.828125 Z M 17.609375 -19.828125 "/></g></g></g><g fill="#cfd8dc" fill-opacity="1"><g transform="translate(122.373931, 203.249958)"><g><path d="M 0 0 L 12.28125 0 L 24.515625 -40.484375 L 12.390625 -40.484375 Z M 0 0 "/></g></g></g><g fill="#cfd8dc" fill-opacity="1"><g transform="translate(144.649202, 203.249958)"><g><path d="M 14.671875 -12.015625 C 14.992188 -15.054688 15.625 -18.035156 16.5625 -20.953125 C 17.507812 -23.867188 18.742188 -26.648438 20.265625 -29.296875 C 20.523438 -29.765625 20.890625 -30.148438 21.359375 -30.453125 C 21.828125 -30.765625 22.332031 -30.921875 22.875 -30.921875 L 40.859375 -30.921875 L 43.796875 -40.65625 L 19.78125 -40.65625 C 18.65625 -40.65625 17.546875 -40.472656 16.453125 -40.109375 C 15.367188 -39.742188 14.335938 -39.253906 13.359375 -38.640625 C 12.390625 -38.023438 11.515625 -37.300781 10.734375 -36.46875 C 9.953125 -35.632812 9.304688 -34.742188 8.796875 -33.796875 C 7.128906 -30.609375 5.695312 -27.320312 4.5 -23.9375 C 3.3125 -20.550781 2.390625 -17.066406 1.734375 -13.484375 C 1.484375 -12.097656 1.410156 -10.625 1.515625 -9.0625 C 1.628906 -7.507812 1.957031 -6.0625 2.5 -4.71875 C 3.039062 -3.382812 3.84375 -2.242188 4.90625 -1.296875 C 5.976562 -0.359375 7.367188 0.195312 9.078125 0.375 C 16.390625 1.207031 23.65625 1.082031 30.875 0 L 33.3125 0 L 39.234375 -18.484375 L 27.125 -18.484375 L 24.078125 -9.234375 C 22.804688 -9.234375 21.535156 -9.210938 20.265625 -9.171875 C 19.003906 -9.140625 17.753906 -9.21875 16.515625 -9.40625 C 15.972656 -9.476562 15.507812 -9.800781 15.125 -10.375 C 14.75 -10.957031 14.597656 -11.503906 14.671875 -12.015625 Z M 14.671875 -12.015625 "/></g></g></g><g fill="#cfd8dc" fill-opacity="1"><g transform="translate(188.492751, 203.249958)"><g><path d="M 22.28125 -0.046875 L 34.5625 -0.046875 L 46.84375 -40.546875 L 34.671875 -40.546875 L 31.078125 -28.796875 L 22.234375 -28.796875 L 25.765625 -40.484375 L 13.640625 -40.484375 L 9.84375 -28.09375 C 8.382812 -27.769531 7.101562 -27.242188 6 -26.515625 C 4.894531 -25.796875 3.878906 -24.910156 2.953125 -23.859375 C 2.035156 -22.804688 1.164062 -21.597656 0.34375 -20.234375 C -0.46875 -18.878906 -1.304688 -17.390625 -2.171875 -15.765625 C -2.242188 -15.503906 -2.144531 -15.335938 -1.875 -15.265625 C -1.601562 -15.191406 -1.378906 -15.285156 -1.203125 -15.546875 C -0.296875 -16.597656 0.863281 -17.46875 2.28125 -18.15625 C 3.695312 -18.84375 5.363281 -19.382812 7.28125 -19.78125 L 1.25 0 L 13.484375 0 L 19.625 -20.21875 L 28.46875 -20.21875 Z M 22.28125 -0.046875 "/></g></g></g><g fill="#cfd8dc" fill-opacity="1"><g transform="translate(233.857494, 203.249958)"><g><path d="M 41.953125 -40.546875 L 21.078125 -40.546875 L 21.078125 -40.65625 C 17.929688 -40.6875 15.296875 -40.394531 13.171875 -39.78125 C 11.054688 -39.164062 9.226562 -38.25 7.6875 -37.03125 C 6.144531 -35.820312 4.796875 -34.328125 3.640625 -32.546875 C 2.484375 -30.773438 1.304688 -28.75 0.109375 -26.46875 C 0.0351562 -26.207031 0.132812 -26.039062 0.40625 -25.96875 C 0.675781 -25.90625 0.90625 -25.976562 1.09375 -26.1875 C 1.664062 -26.914062 2.273438 -27.585938 2.921875 -28.203125 C 3.578125 -28.816406 4.457031 -29.34375 5.5625 -29.78125 C 6.675781 -30.21875 8.109375 -30.535156 9.859375 -30.734375 C 11.617188 -30.929688 13.910156 -30.992188 16.734375 -30.921875 L 7.28125 0 L 19.5625 0 L 28.90625 -30.921875 L 39.015625 -30.921875 Z M 41.953125 -40.546875 "/></g></g></g><g fill="#cfd8dc" fill-opacity="1"><g transform="translate(273.409119, 203.249958)"><g><path d="M 0 0 L 12.28125 0 L 24.515625 -40.484375 L 12.390625 -40.484375 Z M 0 0 "/></g></g></g><g fill="#8b61c2" fill-opacity="1"><g transform="translate(295.693622, 203.249958)"><g><path d="M 14.1875 -19.5625 L -5.375 0 L 5.8125 0 L 16.25 -9.78125 L 18.421875 0 L 29.625 0 L 25.546875 -19.5625 L 46.40625 -40.65625 L 35.265625 -40.65625 L 23.578125 -28.96875 L 21.1875 -40.703125 L 9.5625 -40.703125 Z M 14.1875 -19.5625 "/></g></g></g></svg>